<svg width="32" height="32" viewBox="0 0 32 32" fill="none" xmlns="http://www.w3.org/2000/svg">
<path d="M1.59999 18.0001H26.5374L18.0687 28.5862C17.4439 29.3672 17.4439 30.6332 18.0687 31.4142C18.6935 32.1953 19.7067 32.1953 20.3315 31.4142L31.5314 17.4141C32.1562 16.6331 32.1562 15.3666 31.5314 14.5861L20.3315 0.586005C20.0191 0.195502 19.6095 0 19.1999 0C18.7907 0 18.3811 0.195502 18.0687 0.586005C17.4439 1.36701 17.4439 2.63352 18.0687 3.41403L26.5374 14.0001H1.59999C0.716395 14.0001 0 14.8956 0 16.0001C0 17.1046 0.716395 18.0001 1.59999 18.0001Z" fill="white"/>
</svg>
