<svg width="18" height="25" viewBox="0 0 18 25" fill="none" xmlns="http://www.w3.org/2000/svg">
<path d="M4.4792 8.11554C4.4792 6.69734 2.5929 6.32144 2.0925 7.64844C0.882 10.8582 0 13.7296 0 15.282C0 20.2296 4.0108 24.2403 8.9583 24.2403C13.9059 24.2403 17.9167 20.2296 17.9167 15.282C17.9167 13.6141 16.8986 10.4238 15.5489 6.92714C13.8004 2.39744 12.9262 0.132565 11.8471 0.0105751C11.5018 -0.0284649 11.1251 0.0417153 10.817 0.202435C9.8542 0.704835 9.8542 3.17514 9.8542 8.11554C9.8542 9.59974 8.6509 10.803 7.1667 10.803C5.6824 10.803 4.4792 9.59974 4.4792 8.11554Z" fill="#FFC30D"/>
</svg>
